Coordinates
version=1
nRows=7
nColumns=46
inDegrees=yes

Units are S.I. units (second, meters, Newtons, ...)
Angles are in degrees.

endheader
time	pelvis_tilt	pelvis_list	pelvis_rotation	pelvis_tx	pelvis_ty	pelvis_tz	bb_angle	bb_tx	bb_ty	bb_tz	hip_flexion_r	hip_adduction_r	hip_rotation_r	knee_angle_r	knee_angle_r_beta	ankle_angle_r	subtalar_angle_r	mtp_angle_r	crank_angle_r	hip_flexion_l	hip_adduction_l	hip_rotation_l	knee_angle_l	knee_angle_l_beta	ankle_angle_l	subtalar_angle_l	mtp_angle_l	crank_angle_l	lumbar_extension	lumbar_bending	lumbar_rotation	arm_flex_r	arm_add_r	arm_rot_r	elbow_flex_r	pro_sup_r	wrist_flex_r	wrist_dev_r	arm_flex_l	arm_add_l	arm_rot_l	elbow_flex_l	pro_sup_l	wrist_flex_l	wrist_dev_l
      7.50500000	    -11.23222825	      4.12087601	     11.55450286	      0.08366647	      1.15495702	     -0.24253325	      0.00000000	      0.50000000	      0.00000000	      0.25000000	     57.75517393	    -11.28515359	      5.82605055	     89.44464390	      1.56110353	    -23.92230958	     -9.74332661	      0.00000000	      0.00000000	     59.73171675	     10.50145760	      5.89391763	     61.34556230	      1.07068204	     17.09278044	    -12.10073167	      0.00000000	      0.00000000	    -65.14595845	      8.47410182	     -6.98788702	     89.59731412	    -21.23839918	     40.79643408	     62.88076146	     37.56068129	      0.00000000	      0.00000000	     89.73816675	    -19.68792128	     41.44358608	     61.38551591	     33.38482033	      0.00000000	      0.00000000
      7.51000000	    -10.70633215	      3.77550127	     11.04309078	      0.08455401	      1.15595384	     -0.24327715	      0.00000000	      0.50000000	      0.00000000	      0.25000000	     58.72321472	    -10.79568881	      6.07979965	     90.99629343	      1.58818493	    -25.94341462	     -9.05892948	      0.00000000	      0.00000000	     57.49238069	      9.70550521	      6.13185219	     58.92196623	      1.02838231	     16.83266933	    -11.57601960	      0.00000000	      0.00000000	    -65.36977994	      8.53383861	     -6.56828687	     89.61469546	    -20.81413351	     41.12986024	     62.30491312	     37.38288185	      0.00000000	      0.00000000	     89.72878237	    -19.87481382	     41.88887005	     60.78585101	     33.19689419	      0.00000000	      0.00000000
      7.51500000	    -10.29403412	      3.26734168	     10.48658410	      0.08534980	      1.15680105	     -0.24403079	      0.00000000	      0.50000000	      0.00000000	      0.25000000	     59.81873705	    -10.15296841	      6.22535852	     92.36036655	      1.61199249	    -28.32732315	     -8.14203906	      0.00000000	      0.00000000	     55.50637099	      8.81763572	      6.44012642	     56.57426080	      0.98740712	     16.17416301	    -11.22590616	      0.00000000	      0.00000000	    -65.51356446	      8.65718051	     -5.98548388	     89.62718321	    -20.35984044	     41.37428150	     61.87397231	     37.26870859	      0.00000000	      0.00000000	     89.71335768	    -20.06517717	     42.19585289	     60.29779948	     33.07946580	      0.00000000	      0.00000000
      7.52000000	     -9.75511720	      3.07387734	      9.74085349	      0.08630154	      1.15810697	     -0.24450222	      0.00000000	      0.50000000	      0.00000000	      0.25000000	     60.79042290	     -9.52885521	      6.68591175	     93.68761611	      1.63515737	    -30.53840191	     -7.90059765	      0.00000000	      0.00000000	     53.27633729	      7.93825148	      6.27593885	     54.10994754	      0.94439674	     15.37852448	    -11.14958436	      0.00000000	      0.00000000	    -65.69031622	      8.43467357	     -5.68540996	     89.64805768	    -19.56420588	     41.78795123	     60.57249493	     36.90782759	      0.00000000	      0.00000000	     89.71329685	    -20.21105461	     42.99124865	     59.13203812	     32.81067736	      0.00000000	      0.00000000
      7.52500000	     -9.32497087	      2.72553639	      9.08625215	      0.08714444	      1.15921437	     -0.24524584	      0.00000000	      0.50000000	      0.00000000	      0.25000000	     61.87910178	     -8.96084451	      6.93893756	     94.92259095	      1.65671175	    -32.64150046	     -7.28119734	      0.00000000	      0.00000000	     51.19439185	      7.06807935	      6.28128412	     51.72357130	      0.90274662	     14.48158472	    -10.85986237	      0.00000000	      0.00000000	    -65.76806281	      8.40778452	     -5.40654599	     89.66594050	    -18.51824834	     41.99433045	     59.24325412	     36.38445387	      0.00000000	      0.00000000	     89.70304690	    -20.50116344	     43.60976464	     58.14953971	     32.50937736	      0.00000000	      0.00000000
      7.53000000	     -8.86760300	      2.37913800	      8.29929327	      0.08799196	      1.16047281	     -0.24561454	      0.00000000	      0.50000000	      0.00000000	      0.25000000	     62.89566512	     -8.18657702	      7.26035360	     96.06020284	      1.67656682	    -34.53067693	     -6.82280669	      0.00000000	      0.00000000	     49.07205869	      6.04952889	      6.07990539	     49.36916579	      0.86165449	     13.69368381	    -10.36223885	      0.00000000	      0.00000000	    -66.00449716	      8.25330913	     -4.93241491	     89.67656403	    -17.80043283	     42.07248196	     58.49846632	     36.17713690	      0.00000000	      0.00000000	     89.68997973	    -20.72135477	     44.01811930	     57.52758437	     32.56044423	      0.00000000	      0.00000000
      7.53500000	     -8.45370104	      1.91440390	      7.48570617	      0.08883197	      1.16157316	     -0.24585195	      0.00000000	      0.50000000	      0.00000000	      0.25000000	     63.94441667	     -7.31528512	      7.45300925	     97.15789752	      1.69572521	    -36.09083924	     -6.25663197	      0.00000000	      0.00000000	     47.04392437	      4.90836865	      5.83567020	     47.12886265	      0.82255383	     12.90373266	     -9.92035630	      0.00000000	      0.00000000	    -66.18084487	      8.13032070	     -4.35506780	     89.68604995	    -17.09178563	     42.25563810	     57.75049084	     35.88208351	      0.00000000	      0.00000000	     89.67613533	    -20.94233130	     44.48006635	     56.83676693	     32.43604924	      0.00000000	      0.00000000
